<svg
        id="Layer_1"
        data-name="Layer 1"
        xmlns="http://www.w3.org/2000/svg"
        viewBox="0 0 72 72">
<title>logo</title>
<g>
<path
        fill="#61483A"
        d="M72,60c0,6.6-5.4,12-12,12H12C5.4,72,0,66.6,0,60V12C0,5.4,5.4,0,12,0h48c6.6,0,12,5.4,12,12V60z"
/>
</g>
<polygon
fill="#E3A075"
points="49.5,58.5 45.4,61.2 44.2,61.9 43.7,62.7 42.3,63.5 36,64.1 27.9,63.4 22.5,58.5 22.5,58.5
			22.5,47.2 22.5,31.5 36,31.5 49.5,31.5 49.5,47.2 		"
/>
<path fill="#F27405" d="M27,63" />
<path
fill="#FFDEA6"
d="M19.8,59.2c2.3,2,5.1,3.4,8.1,4.1c0.3,0.1,0.5-0.3,0.3-0.5c-6.4-6.2-2.9-13-0.3-16
			c1.8-2.2,4.5-5.7,4.3-10.5c0-0.5,0.5-0.9,0.9-0.6c3.6,1.9,6.1,6.1,6.8,9.6c1.1-1.1,1.4-2.7,1.4-4.1c0-0.5,0.6-0.9,1-0.5
			c3.4,3.2,9.3,13.9-0.2,22.3c-0.2,0.2,0,0.6,0.2,0.5c2.9-0.8,5.6-2.1,8-3.9c15.5-12.3,5.4-34-1.1-41.2c-0.9-0.9-2.4-0.3-2.4,1
			c-0.1,2.6-0.9,5.5-2.9,7.4c-1.5-6.5-6.6-13.9-13.9-17.6c-1-0.5-2.1,0.3-2,1.3c0.2,8.9-5.5,14.6-10.5,22
			C13.2,39.1,10.3,51.3,19.8,59.2L19.8,59.2z"
/>
        </svg>