<svg id="Layer_1" data-name="Layer 1" xmlns="http://www.w3.org/2000/svg" viewBox="0 0 23.09 24.09"><title>logo</title><path d="M4.78,8.44a.47.47,0,0,1-.35-.15l-1-1a.51.51,0,0,1,0-.71.5.5,0,0,1,.71,0l1,1a.51.51,0,0,1,0,.71.51.51,0,0,1-.36.15Z" transform="translate(-0.76 0.09)" style="fill:#a62604"/><path d="M2.27,8.44a.47.47,0,0,1-.35-.15l-1-1a.51.51,0,0,1,0-.71.5.5,0,0,1,.71,0l1,1a.51.51,0,0,1,0,.71A.51.51,0,0,1,2.27,8.44Z" transform="translate(-0.76 0.09)" style="fill:#a62604"/><path d="M13.82,8.44a.51.51,0,0,1-.36-.15.5.5,0,0,1,0-.71l1-1a.5.5,0,1,1,.71.71l-1,1a.5.5,0,0,1-.35.15Z" transform="translate(-0.76 0.09)" style="fill:#a62604"/><path d="M16.33,8.44A.51.51,0,0,1,16,8.29a.5.5,0,0,1,0-.71l1-1a.5.5,0,0,1,.71.71l-1,1a.5.5,0,0,1-.35.15Z" transform="translate(-0.76 0.09)" style="fill:#a62604"/><path d="M6.79,8.94h5a.5.5,0,0,0,.5-.5v-8a.5.5,0,0,0-.5-.5h-3a.45.45,0,0,0-.3.1l-2,1.5a.51.51,0,0,0-.2.4V8.44a.5.5,0,0,0,.5.5Z" transform="translate(-0.76 0.09)" style="fill:#261210"/><path d="M14.82,24h-10a.5.5,0,0,1,0-1h10a.5.5,0,0,1,0,1Z" transform="translate(-0.76 0.09)" style="fill:#261210"/><path d="M16.07,13.46a.51.51,0,0,1-.5-.5.5.5,0,0,1,.5-.5,1,1,0,1,0,0-2,.51.51,0,0,1,0-1,2,2,0,0,1,0,4Z" transform="translate(-0.76 0.09)" style="fill:#261210"/><path d="M17.83,12a.5.5,0,0,1-.13-1l5.52-1.51a.52.52,0,0,1,.62.35.51.51,0,0,1-.36.62L18,11.94Z" transform="translate(-0.76 0.09)" style="fill:#261210"/><path d="M23.35,13.46l-.13,0-5.52-1.5a.5.5,0,0,1-.35-.62A.49.49,0,0,1,18,11l5.52,1.5a.5.5,0,0,1-.13,1Z" transform="translate(-0.76 0.09)" style="fill:#261210"/><path d="M23.35,14.46h-3.6a1.71,1.71,0,0,1,.09.51v4.48a4.51,4.51,0,0,0,4-4.48.5.5,0,0,0-.5-.51Z" transform="translate(-0.76 0.09)" style="fill:#261210"/><path d="M14.07,23.07a3.38,3.38,0,0,1-1.21-1.58H6.74a3.25,3.25,0,0,1-1.21,1.57.52.52,0,0,0-.23.57.5.5,0,0,0,.48.37h8a.5.5,0,0,0,.25-.93Z" transform="translate(-0.76 0.09)" style="fill:#261210"/><path d="M18.33,14.46H1.27a.5.5,0,0,0-.5.51v5a.5.5,0,0,0,.5.51H18.33a.51.51,0,0,0,.51-.51V15A.51.51,0,0,0,18.33,14.46Z" transform="translate(-0.76 0.09)" style="fill:#261210"/><path d="M20.84,2.92H13.31v3h7.53a.5.5,0,0,0,.5-.5v-2A.5.5,0,0,0,20.84,2.92Z" transform="translate(-0.76 0.09)" style="fill:#261210"/><path d="M5.28,2.92h-.5a.5.5,0,0,0-.5.5v2a.5.5,0,0,0,.5.5h.5Z" transform="translate(-0.76 0.09)" style="fill:#261210"/><path d="M2.77,13H13.82a.51.51,0,0,0,.5-.5v-2a.5.5,0,0,0-.5-.5h-11a.5.5,0,0,0-.5.5v2A.51.51,0,0,0,2.77,13Z" transform="translate(-0.76 0.09)" style="fill:#a62604"/></svg>